<?xml version="1.0" standalone="no"?>
<!DOCTYPE svg PUBLIC "-//W3C//DTD SVG 20010904//EN"
 "http://www.w3.org/TR/2001/REC-SVG-20010904/DTD/svg10.dtd">
<svg version="1.0" xmlns="http://www.w3.org/2000/svg"
 width="1128.000000pt" height="1280.000000pt" viewBox="0 0 1128.000000 1280.000000"
 preserveAspectRatio="xMidYMid meet">
<metadata>
Created by potrace 1.15, written by Peter Selinger 2001-2017
</metadata>
<g transform="translate(0.000000,1280.000000) scale(0.100000,-0.100000)"
fill="#000000" stroke="none">
<path d="M7812 12789 c-125 -22 -286 -116 -365 -212 -222 -271 -187 -668 79
-888 75 -63 154 -99 309 -143 567 -162 999 -355 1430 -641 271 -179 473 -344
774 -629 112 -106 146 -133 215 -165 129 -61 244 -81 366 -62 239 37 436 204
511 433 33 102 34 271 2 373 -46 145 -118 233 -398 489 -720 658 -1535 1110
-2519 1397 -185 54 -297 68 -404 48z"/>
<path d="M6365 10833 c-951 -33 -1869 -372 -2606 -961 -190 -152 -410 -361
-462 -439 -123 -185 -139 -394 -47 -592 66 -140 179 -245 325 -303 66 -26 98
-32 185 -36 197 -8 323 43 489 202 286 273 517 439 836 598 360 181 744 290
1150 328 141 13 449 13 590 0 624 -59 1220 -298 1715 -691 119 -94 406 -377
497 -489 338 -420 563 -895 667 -1410 190 -943 -47 -1912 -653 -2670 -168
-209 -432 -458 -656 -616 -322 -228 -710 -407 -1080 -498 -301 -74 -436 -90
-780 -91 -340 0 -494 17 -774 85 -567 139 -1050 408 -1506 840 -133 125 -252
182 -408 195 -224 19 -466 -113 -569 -311 -45 -87 -56 -121 -67 -211 -19 -153
23 -307 118 -433 122 -161 523 -493 824 -682 1311 -824 2966 -908 4347 -222
1269 630 2156 1818 2394 3204 51 296 60 412 61 770 0 349 -9 463 -56 745 -213
1274 -967 2381 -2084 3060 -147 90 -469 248 -635 314 -361 142 -741 239 -1132
286 -125 15 -486 36 -563 33 -22 -1 -76 -3 -120 -5z"/>
<path d="M6445 8753 c-747 -22 -1454 -416 -1875 -1043 -154 -230 -265 -481
-329 -743 -52 -213 -66 -329 -66 -572 0 -247 14 -359 69 -579 148 -583 517
-1089 1036 -1420 120 -77 344 -182 493 -231 855 -286 1779 -69 2418 565 384
382 625 891 680 1435 16 165 7 465 -20 618 -91 518 -322 956 -693 1313 -463
444 -1067 676 -1713 657z m225 -1163 c489 -62 888 -409 1015 -884 90 -334 30
-689 -165 -982 -29 -43 -101 -126 -160 -184 -160 -158 -323 -251 -537 -306
-130 -35 -363 -44 -498 -21 -250 44 -464 156 -645 337 -232 232 -350 517 -350
846 0 253 65 466 207 682 49 74 197 228 273 283 252 184 562 267 860 229z"/>
<path d="M690 8535 c-153 -43 -286 -136 -368 -259 -60 -90 -81 -143 -127 -325
-83 -331 -136 -648 -177 -1061 -19 -190 -16 -794 5 -1010 48 -491 167 -1082
253 -1251 76 -152 241 -282 413 -325 96 -24 254 -16 349 18 245 88 406 304
419 563 5 93 2 113 -40 290 -121 503 -160 810 -160 1245 1 429 44 759 160
1230 37 151 46 202 46 275 0 176 -58 311 -187 440 -82 81 -137 115 -255 157
-76 27 -254 34 -331 13z"/>
<path d="M2738 7998 c-215 -25 -413 -183 -489 -390 -45 -123 -113 -464 -146
-728 -22 -182 -25 -701 -5 -885 30 -276 106 -663 155 -795 68 -184 230 -327
427 -376 84 -21 229 -14 321 15 139 44 274 158 343 291 85 161 91 277 28 540
-71 300 -93 475 -93 740 0 271 23 451 100 774 68 284 27 471 -144 642 -137
139 -300 195 -497 172z"/>
<path d="M10565 2753 c-60 -8 -142 -36 -209 -71 -51 -26 -114 -78 -235 -192
-277 -258 -456 -405 -681 -559 -441 -301 -899 -510 -1485 -677 -171 -48 -248
-88 -338 -173 -80 -76 -126 -147 -165 -249 -23 -59 -26 -83 -26 -197 -1 -102
3 -142 18 -185 69 -204 215 -353 410 -417 68 -22 100 -26 196 -27 104 -1 128
3 246 37 935 266 1721 688 2444 1312 168 145 397 373 441 439 52 80 89 198 96
306 24 386 -324 705 -712 653z"/>
</g>
</svg>
